<svg width="112" height="127" viewBox="0 0 112 127" fill="none" xmlns="http://www.w3.org/2000/svg">
<rect x="81.4316" y="6.49609" width="30" height="98" rx="12" fill="#EEEEEE"/>
<path d="M94.8835 16.3024L100.068 13.3024C100.612 12.9824 101.092 12.9424 101.508 13.1824C101.94 13.4224 102.156 13.8624 102.156 14.5024V28.4224C102.156 28.8384 102.052 29.2864 101.844 29.7664C101.652 30.2464 101.396 30.6944 101.076 31.1104C100.772 31.5104 100.436 31.8144 100.068 32.0224L94.8835 35.0224C94.3235 35.3424 93.8355 35.3824 93.4195 35.1424C93.0035 34.9024 92.7955 34.4624 92.7955 33.8224V19.9024C92.7955 19.4704 92.8915 19.0224 93.0835 18.5584C93.2755 18.0784 93.5315 17.6384 93.8515 17.2384C94.1715 16.8224 94.5155 16.5104 94.8835 16.3024ZM94.8835 32.6224L100.068 29.6224V15.7024L94.8835 18.7024V32.6224ZM100.068 15.7024V29.6224L97.9795 28.4224V14.5024L100.068 15.7024ZM100.068 29.6224L94.8835 32.6224L92.7955 31.4224L97.9795 28.4224L100.068 29.6224ZM101.532 13.1824C101.1 12.9424 100.612 12.9824 100.068 13.3024L94.8835 16.3024C94.5155 16.5104 94.1715 16.8224 93.8515 17.2384C93.5315 17.6384 93.2755 18.0784 93.0835 18.5584C92.8915 19.0224 92.7955 19.4704 92.7955 19.9024V33.8224C92.7955 34.4624 93.0035 34.9024 93.4195 35.1424L91.3315 33.9424C90.9155 33.7024 90.7075 33.2624 90.7075 32.6224V18.7024C90.7075 18.2704 90.8035 17.8224 90.9955 17.3584C91.1875 16.8784 91.4435 16.4384 91.7635 16.0384C92.0835 15.6224 92.4275 15.3104 92.7955 15.1024L97.9795 12.1024C98.5395 11.7824 99.0275 11.7424 99.4435 11.9824L101.532 13.1824Z" fill="black"/>
<path d="M96.4195 40.6969C96.9795 40.3769 97.4675 40.3369 97.8835 40.5769C98.2995 40.8169 98.5075 41.2569 98.5075 41.8969V53.8969L101.627 52.0969V37.6969L103.715 36.4969V53.2969L98.5075 56.2969C97.9635 56.6169 97.4755 56.6569 97.0435 56.4169C96.6275 56.1769 96.4195 55.7369 96.4195 55.0969V43.0969L93.3235 44.8969V59.2969L91.2355 60.4969V43.6969L96.4195 40.6969ZM103.715 36.4969L101.627 37.6969L99.5395 36.4969L101.627 35.2969L103.715 36.4969ZM101.627 37.6969V52.0969L99.5395 50.8969V36.4969L101.627 37.6969ZM101.627 52.0969L98.5075 53.8969L96.4195 52.6969L99.5395 50.8969L101.627 52.0969ZM96.4195 43.0969V55.0969C96.4195 55.7369 96.6275 56.1769 97.0435 56.4169L94.9795 55.2169C94.5635 54.9769 94.3555 54.5369 94.3555 53.8969V41.8969L96.4195 43.0969ZM97.8835 40.5769C97.4675 40.3369 96.9795 40.3769 96.4195 40.6969L91.2355 43.6969L89.1475 42.4969L94.3555 39.4969C94.8995 39.1769 95.3795 39.1369 95.7955 39.3769L97.8835 40.5769ZM91.2355 43.6969V60.4969L89.1475 59.2969V42.4969L91.2355 43.6969Z" fill="black"/>
<g filter="url(#filter0_i_580_6242)">
<rect x="81.4316" y="64.4961" width="30" height="40" rx="12" fill="#FD6F00"/>
</g>
<mask id="mask0_580_6242" style="mask-type:alpha" maskUnits="userSpaceOnUse" x="11" y="53" width="86" height="74">
<rect x="11.7104" y="88.2402" width="73.0712" height="43.7015" transform="rotate(-28.0158 11.7104 88.2402)" fill="#D9D9D9"/>
</mask>
<g mask="url(#mask0_580_6242)">
<path fill-rule="evenodd" clip-rule="evenodd" d="M76.5316 30.8376C76.5316 28.3309 75.6856 26.6076 73.9936 25.6676L65.9096 20.9676C64.2803 20.0276 62.369 20.1842 60.1756 21.4376L27.6516 40.2376C26.2103 41.0522 24.863 42.2742 23.6096 43.9036C22.3563 45.4702 21.3536 47.1936 20.6016 49.0736C19.8496 50.8909 19.4736 52.6456 19.4736 54.3376V102.748H27.6516H35.8296V54.3376L39.8716 51.9876L47.9556 47.2876V108.498L56.1336 102.748V42.5876L60.1756 40.2556V102.748H68.3536H76.5316V30.8376Z" fill="#EEEEEE"/>
<path d="M39.8716 51.9876L47.9556 47.2876V108.498L39.8716 102.748V51.9876Z" fill="#EEEEEE"/>
</g>
<mask id="mask1_580_6242" style="mask-type:alpha" maskUnits="userSpaceOnUse" x="3" y="3" width="83" height="71">
<path d="M5.09581 46.3207C2.28147 40.9368 4.36454 34.2908 9.74847 31.4764L60.2143 5.09644C65.5982 2.2821 72.2442 4.36516 75.0586 9.7491L84.323 27.4723C87.1374 32.8562 85.0543 39.5022 79.6704 42.3165L19.4561 73.7924L5.09581 46.3207Z" fill="#D9D9D9"/>
</mask>
<g mask="url(#mask1_580_6242)">
<path d="M35.8296 28.9361L68.3536 10.1361C70.4843 8.88276 72.3643 8.72609 73.9936 9.66609C75.6856 10.6061 76.5316 12.3294 76.5316 14.8361V74.9961L68.3536 79.6961V19.5361L56.1336 26.5861V86.7461L47.9556 91.4461V31.2861L35.8296 38.3361V98.4961L27.6516 103.196V43.0361C27.6516 41.3441 28.0276 39.5894 28.7796 37.7721C29.5316 35.8921 30.5343 34.1688 31.7876 32.6021C33.041 30.9728 34.3883 29.7508 35.8296 28.9361ZM68.3536 19.5361V79.6961L60.1756 74.9961V14.8361L68.3536 19.5361ZM47.9556 31.2861V91.4461L39.8716 86.7461V26.5861L47.9556 31.2861ZM73.9936 9.66609C72.3643 8.72609 70.4843 8.88276 68.3536 10.1361L35.8296 28.9361C34.3883 29.7508 33.041 30.9728 31.7876 32.6021C30.5343 34.1688 29.5316 35.8921 28.7796 37.7721C28.0276 39.5894 27.6516 41.3441 27.6516 43.0361V103.196L19.4736 98.4961V38.3361C19.4736 36.6441 19.8496 34.8894 20.6016 33.0721C21.3536 31.1921 22.3563 29.4688 23.6096 27.9021C24.863 26.2728 26.2103 25.0508 27.6516 24.2361L60.1756 5.43609C62.369 4.18276 64.2803 4.02609 65.9096 4.96609L73.9936 9.66609Z" fill="#EEEEEE"/>
</g>
<defs>
<filter id="filter0_i_580_6242" x="81.4316" y="64.4961" width="34" height="44" filterUnits="userSpaceOnUse" color-interpolation-filters="sRGB">
<feFlood flood-opacity="0" result="BackgroundImageFix"/>
<feBlend mode="normal" in="SourceGraphic" in2="BackgroundImageFix" result="shape"/>
<feColorMatrix in="SourceAlpha" type="matrix" values="0 0 0 0 0 0 0 0 0 0 0 0 0 0 0 0 0 0 127 0" result="hardAlpha"/>
<feOffset dx="4" dy="4"/>
<feGaussianBlur stdDeviation="4.5"/>
<feComposite in2="hardAlpha" operator="arithmetic" k2="-1" k3="1"/>
<feColorMatrix type="matrix" values="0 0 0 0 0 0 0 0 0 0 0 0 0 0 0 0 0 0 0.25 0"/>
<feBlend mode="normal" in2="shape" result="effect1_innerShadow_580_6242"/>
</filter>
</defs>
</svg>
